<svg xmlns="http://www.w3.org/2000/svg" xmlns:xlink="http://www.w3.org/1999/xlink" viewBox="0 0 138 124.69"><defs><style>.cls-1{fill:#470c00;}.cls-2{fill:#941d00;}.cls-3{fill:url(#linear-gradient);}</style><linearGradient id="linear-gradient" x1="69" y1="66.01" x2="69" y2="9.14" gradientUnits="userSpaceOnUse"><stop offset="0" stop-color="#b9352d" stop-opacity="0"/><stop offset="1" stop-color="#ba362f"/></linearGradient></defs><title>Asset 22</title><g id="Layer_2" data-name="Layer 2"><g id="UI"><path class="cls-1" d="M67.68,120.7C65,119.41,3,88.53,3,49,3,22.68,23.66,3,42.14,3c6.94,0,18.91,2.74,26.8,19.58C74.68,10,84.06,3,95.42,3,114.1,3,135,22.68,135,49c0,39.52-62,70.4-64.68,71.69l-1.32.65Z"/><path class="cls-1" d="M95.42,6C113.1,6,132,25.34,132,49c0,38.11-63,69-63,69S6,87.12,6,49C6,25.34,24.51,6,42.14,6,52.89,6,63.32,13.2,69,31,74.31,13.2,84.63,6,95.42,6m0-6c-11,0-20.21,5.79-26.54,16.26C62.36,5.79,53,0,42.14,0,31.76,0,21.12,5.35,13,14.67A52.1,52.1,0,0,0,0,49c0,41.37,63.65,73.06,66.36,74.39L69,124.69l2.64-1.29C74.35,122.07,138,90.38,138,49a51.7,51.7,0,0,0-13.18-34.37C116.54,5.34,105.83,0,95.42,0Z"/><path class="cls-2" d="M52.3,108.35C61.26,103.7,114,74.88,114,40c0-9.08-2.76-20.29-7.15-31.45C92.59,2.23,76.18,6.89,69,31,54-16,6,10.9,6,49,6,74.25,33.63,96.32,52.3,108.35Z"/><path class="cls-3" d="M132,49c0-38.11-49-65-63-18C54-16,6,10.9,6,49s63,69,63,69S132,87.12,132,49Z"/></g></g></svg>