<svg xmlns="http://www.w3.org/2000/svg" xmlns:xlink="http://www.w3.org/1999/xlink" viewBox="0 0 1404 1404"><defs><style>.cls-1{opacity:0.44;fill:url(#radial-gradient);}.cls-2,.cls-3,.cls-4{fill:none;stroke:#45f7b1;stroke-miterlimit:10;}.cls-2{stroke-width:20px;}.cls-3{stroke-width:19px;}.cls-4{stroke-width:16px;}</style><radialGradient id="radial-gradient" cx="702" cy="702" r="356.21" gradientUnits="userSpaceOnUse"><stop offset="0.6" stop-color="#26503f" stop-opacity="0"/><stop offset="1" stop-color="#26503f"/></radialGradient></defs><title>Asset 5</title><g id="Layer_2" data-name="Layer 2"><g id="UI"><g id="radar"><path class="cls-1" d="M702,10C319.82,10,10,319.82,10,702s309.82,692,692,692,692-309.82,692-692S1084.18,10,702,10Zm0,1085.72c-217.45,0-393.72-176.27-393.72-393.72S484.55,308.28,702,308.28,1095.72,484.55,1095.72,702,919.45,1095.72,702,1095.72Zm0,0c-217.45,0-393.72-176.27-393.72-393.72S484.55,308.28,702,308.28,1095.72,484.55,1095.72,702,919.45,1095.72,702,1095.72Z"/><circle class="cls-2" cx="702" cy="702" r="692"/><circle class="cls-3" cx="702" cy="702" r="556.78"/><circle class="cls-4" cx="702" cy="702" r="393.72"/></g></g></g></svg>