<svg xmlns="http://www.w3.org/2000/svg" viewBox="0 0 218.11 270.75"><defs><style>.cls-1{fill:#fff;}.cls-2{fill:#ccc;}</style></defs><title>Asset 13</title><g id="Layer_2" data-name="Layer 2"><g id="UI"><g id="murder_icon" data-name="murder icon"><rect class="cls-1" x="28.07" y="169" width="90.34" height="15.06" rx="4.35" ry="4.35" transform="translate(106.08 -11.74) rotate(32.43)"/><path class="cls-1" d="M29,169.55H63.22a8.37,8.37,0,0,1,8.37,8.37v74.2a21.09,21.09,0,0,1-21.09,21.09H29a8.37,8.37,0,0,1-8.37-8.37V177.92A8.37,8.37,0,0,1,29,169.55Z" transform="translate(125.91 9.8) rotate(32.43)"/><path class="cls-1" d="M58.6,139.1l58.3-91S150.64,43.9,174.41,0c41.44,57.88-56.18,177-56.18,177Z"/><path class="cls-2" d="M141.11,68.86C127.27,100,99.6,145,99.6,145l28.49,19.11c19-26,58.66-86.1,56.47-132.77C176.45,40.74,156.91,66.61,141.11,68.86Z"/><path class="cls-1" d="M218.11,123.77a21.2,21.2,0,0,1-42.4,0c0-11.71,21.2-35.88,21.2-35.88S218.11,112.06,218.11,123.77Z"/></g></g></g></svg>