<svg xmlns="http://www.w3.org/2000/svg" viewBox="0 0 252.42 252.42"><defs><style>.cls-1{fill:none;stroke:#fff;stroke-miterlimit:10;stroke-width:23px;}.cls-2{fill:#fff;}</style></defs><title>Asset 11</title><g id="Layer_2" data-name="Layer 2"><g id="UI"><g id="survivor_icon" data-name="survivor icon"><circle class="cls-1" cx="126.21" cy="126.21" r="114.71"/><polygon class="cls-2" points="134.17 132.17 134.29 132.08 134.27 132.05 160.11 98.29 186.13 64.29 152.13 90.32 118.37 116.16 118.34 116.13 118.25 116.25 118.13 116.34 118.16 116.37 92.32 150.13 66.29 184.13 100.29 158.11 134.05 132.27 134.08 132.29 134.17 132.17"/><polygon class="cls-2" points="134.17 134.01 134.29 133.92 134.27 133.89 160.11 100.13 186.13 66.13 152.13 92.16 118.37 118 118.34 117.97 118.25 118.09 118.13 118.18 118.16 118.21 92.32 151.97 66.29 185.97 100.29 159.94 134.05 134.1 134.08 134.13 134.17 134.01"/><polygon class="cls-2" points="238.77 128.81 238.77 146.86 223.14 137.83 207.51 128.81 223.14 119.78 238.77 110.76 238.77 128.81"/><polygon class="cls-2" points="13.2 128.81 13.2 110.76 28.83 119.78 44.46 128.81 28.83 137.83 13.2 146.86 13.2 128.81"/><polygon class="cls-2" points="125.99 241.59 107.94 241.59 116.96 225.96 125.99 210.33 135.01 225.96 144.04 241.59 125.99 241.59"/><polygon class="cls-2" points="125.99 16.02 144.04 16.02 135.01 31.65 125.99 47.28 116.96 31.65 107.94 16.02 125.99 16.02"/></g></g></g></svg>