<svg xmlns="http://www.w3.org/2000/svg" xmlns:xlink="http://www.w3.org/1999/xlink" viewBox="0 0 1761.32 2960"><defs><style>.cls-1,.cls-5{fill:none;}.cls-2{clip-path:url(#clip-path);}.cls-3{fill:#152b27;}.cls-4{clip-path:url(#clip-path-2);}.cls-5{stroke:#26503f;stroke-miterlimit:10;stroke-width:8px;}</style><clipPath id="clip-path"><path class="cls-1" d="M10.12,0V2960h1440V0Zm720,1873.72c-217.45,0-393.72-176.27-393.72-393.72s176.27-393.72,393.72-393.72,393.72,176.27,393.72,393.72S947.57,1873.72,730.12,1873.72Z"/></clipPath><clipPath id="clip-path-2"><rect class="cls-1" x="7.56" y="81.5" width="1445.12" height="2797"/></clipPath></defs><title>Asset 4</title><g id="Layer_2" data-name="Layer 2"><g id="Layer_1-2" data-name="Layer 1"><g class="cls-2"><rect class="cls-3" x="10.12" width="1440" height="2960"/><g class="cls-4"><g id="grid"><g id="grid-2" data-name="grid"><rect class="cls-5" x="4" y="445.69" width="876.66" height="876.66"/><line class="cls-5" x1="4" y1="1176.24" x2="880.66" y2="1176.24"/><line class="cls-5" x1="4" y1="1030.13" x2="880.66" y2="1030.13"/><line class="cls-5" x1="4" y1="884.02" x2="880.66" y2="884.02"/><line class="cls-5" x1="4" y1="737.91" x2="880.66" y2="737.91"/><line class="cls-5" x1="4" y1="591.8" x2="880.66" y2="591.8"/><line class="cls-5" x1="734.55" y1="445.69" x2="734.55" y2="1322.36"/><line class="cls-5" x1="588.44" y1="445.69" x2="588.44" y2="1322.36"/><line class="cls-5" x1="442.33" y1="445.69" x2="442.33" y2="1322.36"/><line class="cls-5" x1="296.22" y1="445.69" x2="296.22" y2="1322.36"/><line class="cls-5" x1="150.11" y1="445.69" x2="150.11" y2="1322.36"/></g><g id="grid-3" data-name="grid"><rect class="cls-5" x="4" y="1322.36" width="876.66" height="876.66"/><line class="cls-5" x1="4" y1="2052.91" x2="880.66" y2="2052.91"/><line class="cls-5" x1="4" y1="1906.8" x2="880.66" y2="1906.8"/><line class="cls-5" x1="4" y1="1760.69" x2="880.66" y2="1760.69"/><line class="cls-5" x1="4" y1="1614.58" x2="880.66" y2="1614.58"/><line class="cls-5" x1="4" y1="1468.47" x2="880.66" y2="1468.47"/><line class="cls-5" x1="734.55" y1="1322.36" x2="734.55" y2="2199.02"/><line class="cls-5" x1="588.44" y1="1322.36" x2="588.44" y2="2199.02"/><line class="cls-5" x1="442.33" y1="1322.36" x2="442.33" y2="2199.02"/><line class="cls-5" x1="296.22" y1="1322.36" x2="296.22" y2="2199.02"/><line class="cls-5" x1="150.11" y1="1322.36" x2="150.11" y2="2199.02"/></g><g id="grid-4" data-name="grid"><rect class="cls-5" x="4" y="1464.84" width="876.66" height="876.66"/><line class="cls-5" x1="4" y1="2195.39" x2="880.66" y2="2195.39"/><line class="cls-5" x1="4" y1="2049.28" x2="880.66" y2="2049.28"/><line class="cls-5" x1="4" y1="1903.17" x2="880.66" y2="1903.17"/><line class="cls-5" x1="4" y1="1757.06" x2="880.66" y2="1757.06"/><line class="cls-5" x1="4" y1="1610.95" x2="880.66" y2="1610.95"/><line class="cls-5" x1="734.55" y1="1464.84" x2="734.55" y2="2341.5"/><line class="cls-5" x1="588.44" y1="1464.84" x2="588.44" y2="2341.5"/><line class="cls-5" x1="442.33" y1="1464.84" x2="442.33" y2="2341.5"/><line class="cls-5" x1="296.22" y1="1464.84" x2="296.22" y2="2341.5"/><line class="cls-5" x1="150.11" y1="1464.84" x2="150.11" y2="2341.5"/></g><g id="grid-5" data-name="grid"><rect class="cls-5" x="880.66" y="445.69" width="876.66" height="876.66"/><line class="cls-5" x1="880.66" y1="1176.24" x2="1757.32" y2="1176.24"/><line class="cls-5" x1="880.66" y1="1030.13" x2="1757.32" y2="1030.13"/><line class="cls-5" x1="880.66" y1="884.02" x2="1757.32" y2="884.02"/><line class="cls-5" x1="880.66" y1="737.91" x2="1757.32" y2="737.91"/><line class="cls-5" x1="880.66" y1="591.8" x2="1757.32" y2="591.8"/><line class="cls-5" x1="1611.21" y1="445.69" x2="1611.21" y2="1322.36"/><line class="cls-5" x1="1465.1" y1="445.69" x2="1465.1" y2="1322.36"/><line class="cls-5" x1="1318.99" y1="445.69" x2="1318.99" y2="1322.36"/><line class="cls-5" x1="1172.88" y1="445.69" x2="1172.88" y2="1322.36"/><line class="cls-5" x1="1026.77" y1="445.69" x2="1026.77" y2="1322.36"/></g><g id="grid-6" data-name="grid"><rect class="cls-5" x="880.66" y="1322.36" width="876.66" height="876.66"/><line class="cls-5" x1="880.66" y1="2052.91" x2="1757.32" y2="2052.91"/><line class="cls-5" x1="880.66" y1="1906.8" x2="1757.32" y2="1906.8"/><line class="cls-5" x1="880.66" y1="1760.69" x2="1757.32" y2="1760.69"/><line class="cls-5" x1="880.66" y1="1614.58" x2="1757.32" y2="1614.58"/><line class="cls-5" x1="880.66" y1="1468.47" x2="1757.32" y2="1468.47"/><line class="cls-5" x1="1611.21" y1="1322.36" x2="1611.21" y2="2199.02"/><line class="cls-5" x1="1465.1" y1="1322.36" x2="1465.1" y2="2199.02"/><line class="cls-5" x1="1318.99" y1="1322.36" x2="1318.99" y2="2199.02"/><line class="cls-5" x1="1172.88" y1="1322.36" x2="1172.88" y2="2199.02"/><line class="cls-5" x1="1026.77" y1="1322.36" x2="1026.77" y2="2199.02"/></g><g id="grid-7" data-name="grid"><rect class="cls-5" x="880.66" y="1464.84" width="876.66" height="876.66"/><line class="cls-5" x1="880.66" y1="2195.39" x2="1757.32" y2="2195.39"/><line class="cls-5" x1="880.66" y1="2049.28" x2="1757.32" y2="2049.28"/><line class="cls-5" x1="880.66" y1="1903.17" x2="1757.32" y2="1903.17"/><line class="cls-5" x1="880.66" y1="1757.06" x2="1757.32" y2="1757.06"/><line class="cls-5" x1="880.66" y1="1610.95" x2="1757.32" y2="1610.95"/><line class="cls-5" x1="1611.21" y1="1464.84" x2="1611.21" y2="2341.5"/><line class="cls-5" x1="1465.1" y1="1464.84" x2="1465.1" y2="2341.5"/><line class="cls-5" x1="1318.99" y1="1464.84" x2="1318.99" y2="2341.5"/><line class="cls-5" x1="1172.88" y1="1464.84" x2="1172.88" y2="2341.5"/><line class="cls-5" x1="1026.77" y1="1464.84" x2="1026.77" y2="2341.5"/></g></g></g></g></g></g></svg>