<svg xmlns="http://www.w3.org/2000/svg" viewBox="0 0 186 192"><defs><style>.cls-1{fill:#7dcd36;}.cls-2{fill:#2e471f;}.cls-3{fill:#fbfbfc;}</style></defs><title>Asset 8</title><g id="Layer_2" data-name="Layer 2"><g id="UI"><circle class="cls-1" cx="93" cy="99" r="88"/><path class="cls-2" d="M93,16A83,83,0,1,1,10,99,83,83,0,0,1,93,16M93,6a93,93,0,1,0,93,93A93.11,93.11,0,0,0,93,6Z"/><circle class="cls-1" cx="93" cy="91" r="87"/><path class="cls-1" d="M93,8A83,83,0,1,1,10,91,83,83,0,0,1,93,8m0-8a91,91,0,1,0,91,91A91.1,91.1,0,0,0,93,0Z"/><path class="cls-2" d="M112.2,136.46a8.33,8.33,0,0,1-4.14-1.12L43.68,98.17a8.29,8.29,0,0,1,0-14.37l64.38-37.16a8.2,8.2,0,0,1,4.14-1.12,8.31,8.31,0,0,1,8.3,8.3V71.37l-29,16.76a3.31,3.31,0,0,0,0,5.71l29,16.76v17.55a8.19,8.19,0,0,1-2.54,6A8.39,8.39,0,0,1,112.2,136.46Z"/><path class="cls-2" d="M112.2,48a5.8,5.8,0,0,1,5.8,5.8V69.93L90.22,86a5.8,5.8,0,0,0,0,10L118,112v16.11a5.8,5.8,0,0,1-5.8,5.81,5.73,5.73,0,0,1-2.89-.79L77.12,114.59,44.93,96a5.8,5.8,0,0,1,0-10L77.12,67.38,109.31,48.8A5.71,5.71,0,0,1,112.2,48m0-5a10.78,10.78,0,0,0-5.39,1.45L74.62,63.05,42.43,81.64a10.79,10.79,0,0,0,0,18.7l32.19,18.58,32.19,18.58A10.69,10.69,0,0,0,112.2,139,10.82,10.82,0,0,0,123,128.15v-19l-2.5-1.45-27.78-16a.81.81,0,0,1,0-1.38l27.78-16,2.5-1.44v-19A10.81,10.81,0,0,0,112.2,43Z"/><path class="cls-3" d="M118,123.3V107.19l-27.78-16a5.8,5.8,0,0,1,0-10l27.78-16V49a5.79,5.79,0,0,0-8.69-5L77.12,62.53,44.93,81.12a5.8,5.8,0,0,0,0,10l32.19,18.58,32.19,18.58A5.79,5.79,0,0,0,118,123.3Z"/></g></g></svg>