<svg xmlns="http://www.w3.org/2000/svg" viewBox="0 0 85.7 54.29"><defs><style>.cls-1{fill:none;stroke-width:7px;}.cls-1,.cls-3{stroke:#fbfbfc;stroke-miterlimit:10;}.cls-2,.cls-3{fill:#fbfbfc;}.cls-3{stroke-width:2px;}</style></defs><title>Asset 17</title><g id="Layer_2" data-name="Layer 2"><g id="UI"><g id="trap_icon" data-name="trap icon"><ellipse class="cls-1" cx="42.85" cy="31.93" rx="39.35" ry="18.87"/><ellipse class="cls-2" cx="42.85" cy="27.62" rx="12.94" ry="6.2"/><rect class="cls-3" x="3.5" y="27.08" width="78.7" height="1.08"/><polygon class="cls-2" points="42.31 0 46.08 6.53 49.85 13.06 42.31 13.06 34.77 13.06 38.54 6.53 42.31 0"/><polygon class="cls-2" points="22.91 2.16 26.68 8.69 30.45 15.22 22.91 15.22 15.36 15.22 19.13 8.69 22.91 2.16"/><polygon class="cls-2" points="62.79 2.16 66.56 8.69 70.33 15.22 62.79 15.22 55.25 15.22 59.02 8.69 62.79 2.16"/><polygon class="cls-2" points="42.31 37.73 46.08 44.26 49.85 50.79 42.31 50.79 34.77 50.79 38.54 44.26 42.31 37.73"/><polygon class="cls-2" points="22.91 33.42 26.68 39.95 30.45 46.48 22.91 46.48 15.36 46.48 19.13 39.95 22.91 33.42"/><polygon class="cls-2" points="62.79 33.42 66.56 39.95 70.33 46.48 62.79 46.48 55.25 46.48 59.02 39.95 62.79 33.42"/></g></g></g></svg>